<svg width="135" height="39" xmlns="http://www.w3.org/2000/svg">
  <g fill-rule="nonzero" fill="none">
    <path d="M130.197 39H4.729C2.122 39 0 36.925 0 34.385V4.608C0 2.067 2.122 0 4.729 0h125.468C132.803 0 135 2.067 135 4.608v29.777c0 2.54-2.197 4.615-4.803 4.615Z" fill="#A6A6A6"/>
    <path d="M134.032 34.386c0 2.063-1.714 3.735-3.834 3.735H4.729C2.61 38.12.89 36.449.89 34.386V4.606C.89 2.546 2.61.869 4.729.869h125.468c2.121 0 3.835 1.677 3.835 3.739v29.78Z" fill="#000"/>
    <g fill="#FFF">
      <path d="M53.645 30.716h-2.271l-1.244-3.81h-4.324l-1.185 3.81H42.41l4.284-12.975h2.646l4.305 12.975Zm-3.89-5.41-1.125-3.388c-.119-.346-.342-1.161-.671-2.444h-.04a92.4 92.4 0 0 1-.632 2.444l-1.105 3.388h3.573ZM64.662 25.923c0 1.591-.441 2.85-1.323 3.773-.79.821-1.771 1.232-2.942 1.232-1.264 0-2.172-.443-2.725-1.328h-.04v4.929H55.5V24.44c0-1-.027-2.027-.079-3.08h1.875l.119 1.483h.04c.711-1.117 1.79-1.675 3.238-1.675 1.132 0 2.077.436 2.833 1.309.758.873 1.136 2.022 1.136 3.446ZM62.49 26c0-.91-.21-1.661-.632-2.252-.461-.616-1.08-.924-1.856-.924-.526 0-1.004.171-1.431.51a2.357 2.357 0 0 0-.839 1.338 2.658 2.658 0 0 0-.099.634v1.56c0 .68.214 1.255.642 1.724.428.469.984.703 1.668.703.803 0 1.428-.302 1.875-.905.448-.603.672-1.399.672-2.388ZM75.699 25.923c0 1.591-.441 2.85-1.324 3.773-.789.821-1.77 1.232-2.941 1.232-1.264 0-2.172-.443-2.724-1.328h-.04v4.929h-2.132V24.44c0-1-.027-2.027-.079-3.08h1.875l.119 1.483h.04c.71-1.117 1.789-1.675 3.238-1.675 1.131 0 2.076.436 2.834 1.309.755.873 1.134 2.022 1.134 3.446ZM73.527 26c0-.91-.211-1.661-.633-2.252-.461-.616-1.078-.924-1.855-.924-.527 0-1.004.171-1.432.51a2.355 2.355 0 0 0-.838 1.338 2.71 2.71 0 0 0-.099.634v1.56c0 .68.214 1.255.64 1.724.428.468.984.703 1.67.703.803 0 1.428-.302 1.875-.905.448-.603.672-1.399.672-2.388ZM88.039 27.078c0 1.103-.393 2.001-1.182 2.695-.867.757-2.074 1.135-3.625 1.135-1.432 0-2.58-.269-3.449-.808l.494-1.732a5.958 5.958 0 0 0 3.082.828c.803 0 1.428-.177 1.877-.53.447-.353.67-.827.67-1.418 0-.526-.184-.97-.553-1.33-.367-.36-.98-.694-1.836-1.003-2.33-.847-3.494-2.088-3.494-3.72 0-1.067.408-1.942 1.225-2.622.814-.682 1.9-1.022 3.258-1.022 1.211 0 2.217.206 3.02.616l-.533 1.695c-.75-.398-1.598-.597-2.547-.597-.75 0-1.336.18-1.756.54-.355.32-.533.711-.533 1.174 0 .513.203.937.611 1.27.355.309 1 .642 1.936 1.002 1.145.45 1.986.975 2.527 1.577.539.601.808 1.353.808 2.25ZM95.088 22.92h-2.35v4.543c0 1.155.414 1.732 1.244 1.732.381 0 .697-.032.947-.096l.059 1.578c-.42.153-.973.23-1.658.23-.842 0-1.5-.25-1.975-.75-.473-.501-.711-1.342-.711-2.523v-4.716h-1.4v-1.56h1.4v-1.713l2.094-.616v2.33h2.35v1.561ZM105.691 25.961c0 1.438-.422 2.62-1.264 3.543-.883.95-2.055 1.424-3.516 1.424-1.408 0-2.529-.455-3.365-1.366-.836-.91-1.254-2.06-1.254-3.446 0-1.45.43-2.637 1.293-3.56.861-.925 2.023-1.387 3.484-1.387 1.408 0 2.541.456 3.396 1.367.818.884 1.226 2.026 1.226 3.425Zm-2.212.068c0-.863-.189-1.603-.572-2.22-.447-.747-1.086-1.12-1.914-1.12-.857 0-1.508.374-1.955 1.12-.383.618-.572 1.37-.572 2.259 0 .862.189 1.602.572 2.219.461.747 1.105 1.119 1.936 1.119.814 0 1.453-.38 1.914-1.139.393-.629.591-1.376.591-2.238ZM112.621 23.188a3.794 3.794 0 0 0-.672-.057c-.75 0-1.33.276-1.738.829-.355.487-.533 1.103-.533 1.847v4.91h-2.131l.02-6.41a49.6 49.6 0 0 0-.08-2.946h1.857l.078 1.79h.059c.225-.615.58-1.11 1.066-1.482a2.622 2.622 0 0 1 1.541-.5c.197 0 .375.013.533.037v1.982ZM122.156 25.596c0 .372-.025.686-.078.943h-6.396c.025.924.334 1.63.928 2.118.539.436 1.236.654 2.092.654.947 0 1.811-.147 2.588-.442l.334 1.443c-.908.386-1.98.578-3.217.578-1.488 0-2.656-.427-3.506-1.28-.848-.853-1.273-1.999-1.273-3.436 0-1.41.395-2.586 1.186-3.523.828-1 1.947-1.5 3.355-1.5 1.383 0 2.43.5 3.141 1.5.563.795.846 1.778.846 2.945Zm-2.033-.54c.014-.616-.125-1.148-.414-1.598-.369-.578-.936-.866-1.699-.866-.697 0-1.264.282-1.697.847-.355.45-.566.989-.631 1.617h4.441Z"/>
    </g>
    <g fill="#FFF">
      <path d="M49.05 9.759c0 1.147-.353 2.011-1.058 2.591-.653.536-1.581.804-2.783.804a13.23 13.23 0 0 1-1.533-.076v-6.27a11.597 11.597 0 0 1 1.805-.133c1.145 0 2.008.243 2.59.728.652.55.979 1.334.979 2.356Zm-1.105.028c0-.744-.202-1.314-.606-1.712-.404-.397-.994-.596-1.771-.596-.33 0-.611.022-.844.067v4.766c.129.02.365.029.708.029.802 0 1.421-.218 1.857-.653.436-.435.656-1.068.656-1.901ZM54.909 10.761c0 .707-.207 1.286-.621 1.74-.434.467-1.009.7-1.727.7-.692 0-1.243-.223-1.654-.671-.41-.448-.615-1.012-.615-1.693 0-.712.211-1.296.635-1.749.424-.453.994-.68 1.712-.68.692 0 1.248.223 1.669.67.4.435.601.997.601 1.683Zm-1.087.033c0-.424-.094-.788-.281-1.09-.22-.367-.533-.55-.94-.55-.421 0-.741.183-.961.55-.188.302-.281.672-.281 1.109 0 .424.094.788.281 1.09.227.367.543.55.951.55.4 0 .714-.186.94-.559.194-.31.291-.676.291-1.1ZM62.765 8.501l-1.475 4.596h-.96l-.611-1.996a14.63 14.63 0 0 1-.379-1.485c-.11.505-.236 1-.398 1.485l-.649 1.996h-.971l-1.387-4.596h1.077l.533 2.185c.129.517.235 1.01.32 1.475.097-.384.226-.873.408-1.465l.669-2.194h.854l.641 2.147c.155.524.281 1.028.378 1.513h.029c.071-.473.178-.977.32-1.513l.572-2.147 1.029-.001ZM68.198 13.097H67.15v-2.632c0-.812-.316-1.217-.95-1.217a.956.956 0 0 0-.757.334 1.169 1.169 0 0 0-.291.788v2.726h-1.048V9.814c0-.403-.013-.841-.038-1.315h.921l.049.719h.029c.122-.224.304-.408.543-.555.284-.172.602-.259.95-.259.44 0 .806.139 1.097.417.362.34.543.848.543 1.523v2.753ZM71.088 13.097h-1.047V6.392h1.047zM77.258 10.761c0 .707-.207 1.286-.621 1.74-.434.467-1.01.7-1.727.7-.693 0-1.244-.223-1.654-.671-.41-.448-.615-1.012-.615-1.693 0-.712.211-1.296.635-1.749.424-.453.994-.68 1.711-.68.693 0 1.248.223 1.67.67.4.435.601.997.601 1.683Zm-1.088.033c0-.424-.094-.788-.281-1.09-.219-.367-.533-.55-.939-.55-.422 0-.742.183-.961.55-.188.302-.281.672-.281 1.109 0 .424.094.788.281 1.09.227.367.543.55.951.55.4 0 .713-.186.939-.559.195-.31.291-.676.291-1.1ZM82.33 13.097h-.941l-.078-.53h-.029c-.322.423-.781.634-1.377.634-.445 0-.805-.139-1.076-.416a1.288 1.288 0 0 1-.369-.936c0-.561.24-.99.723-1.286.482-.296 1.16-.442 2.033-.435v-.085c0-.606-.326-.908-.979-.908-.465 0-.875.114-1.229.34l-.213-.67c.438-.265.979-.398 1.617-.398 1.232 0 1.85.634 1.85 1.902V12c0 .46.023.825.068 1.096Zm-1.088-1.58v-.708c-1.156-.02-1.734.29-1.734.926 0 .24.066.42.201.54.135.12.307.179.512.179.23 0 .445-.072.641-.213a.869.869 0 0 0 .38-.723ZM88.285 13.097h-.93l-.049-.738h-.029c-.297.562-.803.842-1.514.842a1.792 1.792 0 0 1-1.416-.652c-.375-.435-.562-1-.562-1.692 0-.744.203-1.347.611-1.807a1.9 1.9 0 0 1 1.455-.644c.633 0 1.076.208 1.328.624h.02V6.392h1.049v5.467c0 .447.012.86.037 1.238Zm-1.086-1.938v-.766c0-.133-.01-.24-.029-.322a1.159 1.159 0 0 0-.379-.62 1.046 1.046 0 0 0-.701-.25c-.391 0-.697.151-.922.454-.223.304-.336.69-.336 1.164 0 .454.107.822.322 1.106.227.302.533.454.916.454.344 0 .619-.126.828-.379a1.24 1.24 0 0 0 .301-.841ZM97.248 10.761c0 .707-.207 1.286-.621 1.74-.434.467-1.008.7-1.727.7-.691 0-1.242-.223-1.654-.671-.41-.448-.615-1.012-.615-1.693 0-.712.211-1.296.635-1.749.424-.453.994-.68 1.713-.68.691 0 1.248.223 1.668.67.4.435.601.997.601 1.683Zm-1.086.033c0-.424-.094-.788-.281-1.09-.221-.367-.533-.55-.941-.55-.42 0-.74.183-.961.55-.188.302-.281.672-.281 1.109 0 .424.094.788.281 1.09.227.367.543.55.951.55.4 0 .715-.186.941-.559.193-.31.291-.676.291-1.1ZM102.883 13.097h-1.047v-2.632c0-.812-.316-1.217-.951-1.217a.953.953 0 0 0-.756.334 1.164 1.164 0 0 0-.291.788v2.726h-1.049V9.814c0-.403-.012-.841-.037-1.315h.92l.049.719h.029c.123-.224.305-.408.543-.555.285-.172.602-.259.951-.259.439 0 .805.139 1.096.417.363.34.543.848.543 1.523v2.753ZM109.936 9.266h-1.154V11.5c0 .568.205.851.611.851.188 0 .344-.015.467-.047l.027.775c-.207.076-.479.114-.814.114-.414 0-.736-.123-.969-.369-.234-.245-.35-.659-.35-1.239V9.266h-.689v-.765h.689v-.842l1.027-.303V8.5h1.154v.766h.001ZM115.484 13.097h-1.049v-2.613c0-.824-.316-1.236-.949-1.236-.486 0-.818.239-1 .716-.031.1-.049.224-.049.368v2.764h-1.047V6.392h1.047v2.77h.02c.33-.504.803-.756 1.416-.756.434 0 .793.139 1.078.417.355.346.533.86.533 1.541v2.733ZM121.207 10.582c0 .183-.014.337-.039.463h-3.143c.014.454.164.8.455 1.04.266.215.609.322 1.029.322.465 0 .889-.072 1.271-.218l.164.71c-.447.19-.973.284-1.582.284-.73 0-1.305-.21-1.721-.629-.418-.42-.625-.982-.625-1.688 0-.693.193-1.27.582-1.73.406-.492.955-.737 1.648-.737.678 0 1.193.245 1.541.737.281.39.42.872.42 1.446Zm-1-.265a1.35 1.35 0 0 0-.203-.784c-.182-.284-.459-.426-.834-.426-.342 0-.621.138-.834.416a1.524 1.524 0 0 0-.311.794h2.182Z"/>
    </g>
    <path d="m27.918 12.063.295.02c.823.023 3.165.316 4.676 2.464-.122.071-2.79 1.6-2.761 4.742.033 3.767 3.379 5.012 3.42 5.026-.02.087-.524 1.796-1.779 3.532-1.048 1.528-2.146 3.021-3.89 3.049-1.694.038-2.264-.972-4.207-.972-1.961 0-2.568.945-4.193 1.01-1.661.06-2.93-1.631-4.016-3.146-2.171-3.091-3.861-8.712-1.595-12.537 1.098-1.876 3.1-3.084 5.24-3.116 1.663-.033 3.206 1.095 4.228 1.095 1.002 0 2.91-1.35 4.877-1.148Zm.316-6.001c.166 1.47-.432 2.92-1.306 3.986-.912 1.05-2.371 1.852-3.792 1.749-.186-1.416.534-2.922 1.34-3.84.911-1.042 2.493-1.84 3.758-1.895Z" fill="#FFF"/>
  </g>
</svg>
