<svg width="135" height="39" xmlns="http://www.w3.org/2000/svg">
  <defs>
    <linearGradient x1="61.607%" y1="4.948%" x2="25.282%" y2="71.907%" id="a">
      <stop stop-color="#00A0FF" offset="0%"/>
      <stop stop-color="#00A1FF" offset="1%"/>
      <stop stop-color="#00BEFF" offset="26%"/>
      <stop stop-color="#00D2FF" offset="51%"/>
      <stop stop-color="#00DFFF" offset="76%"/>
      <stop stop-color="#00E3FF" offset="100%"/>
    </linearGradient>
    <linearGradient x1="107.685%" y1="50%" x2="-130.64%" y2="50%" id="b">
      <stop stop-color="#FFE000" offset="0%"/>
      <stop stop-color="#FFBD00" offset="41%"/>
      <stop stop-color="orange" offset="78%"/>
      <stop stop-color="#FF9C00" offset="100%"/>
    </linearGradient>
    <linearGradient x1="86.219%" y1="31.854%" x2="-50.15%" y2="131.742%" id="c">
      <stop stop-color="#FF3A44" offset="0%"/>
      <stop stop-color="#C31162" offset="100%"/>
    </linearGradient>
    <linearGradient x1="-18.754%" y1="-8.779%" x2="42.121%" y2="35.831%" id="d">
      <stop stop-color="#32A071" offset="0%"/>
      <stop stop-color="#2DA771" offset="7%"/>
      <stop stop-color="#15CF74" offset="48%"/>
      <stop stop-color="#06E775" offset="80%"/>
      <stop stop-color="#00F076" offset="100%"/>
    </linearGradient>
  </defs>
  <g fill-rule="nonzero" fill="none">
    <rect fill="#000" width="135" height="39" rx="5"/>
    <path d="M130 .78c2.32 0 4.2 1.833 4.2 4.095v29.25c0 2.262-1.88 4.095-4.2 4.095H5c-2.32 0-4.2-1.833-4.2-4.095V4.875C.8 2.613 2.68.78 5 .78h125Zm0-.78H5C2.239 0 0 2.183 0 4.875v29.25C0 36.817 2.239 39 5 39h125c2.761 0 5-2.183 5-4.875V4.875C135 2.183 132.761 0 130 0Z" fill="#A6A6A6"/>
    <path d="M68.14 21.206c-2.345.011-4.237 1.871-4.23 4.157.007 2.286 1.912 4.134 4.257 4.13 2.344-.003 4.243-1.857 4.243-4.143a4.033 4.033 0 0 0-1.234-2.955 4.247 4.247 0 0 0-3.036-1.189Zm0 6.66a2.59 2.59 0 0 1-2.508-1.426 2.467 2.467 0 0 1 .439-2.797 2.626 2.626 0 0 1 2.83-.629 2.518 2.518 0 0 1 1.639 2.336 2.364 2.364 0 0 1-.656 1.751c-.452.474-1.08.75-1.744.765Zm-9.31-6.66c-2.346.006-4.244 1.863-4.24 4.15.004 2.288 1.907 4.14 4.253 4.138 2.346-.002 4.247-1.857 4.247-4.144a4.033 4.033 0 0 0-1.234-2.955 4.247 4.247 0 0 0-3.036-1.189h.01Zm0 6.66a2.591 2.591 0 0 1-2.515-1.418 2.467 2.467 0 0 1 .432-2.8 2.626 2.626 0 0 1 2.831-.634 2.518 2.518 0 0 1 1.642 2.336 2.364 2.364 0 0 1-.656 1.751c-.452.474-1.08.75-1.744.765h.01Zm-11.09-5.383v1.755h4.32a3.633 3.633 0 0 1-1 2.214 4.48 4.48 0 0 1-3.33 1.287c-2.651 0-4.8-2.096-4.8-4.68 0-2.585 2.149-4.68 4.8-4.68A4.664 4.664 0 0 1 51 19.637l1.27-1.239a6.373 6.373 0 0 0-4.53-1.823c-2.421-.092-4.7 1.115-5.938 3.145a6.307 6.307 0 0 0 0 6.59c1.238 2.03 3.517 3.237 5.938 3.145a6.08 6.08 0 0 0 4.61-1.804 5.765 5.765 0 0 0 1.56-4.114c.003-.37-.03-.739-.1-1.102h-6.07v.049Zm45.31 1.366c-.534-1.532-1.982-2.583-3.64-2.643a4.05 4.05 0 0 0-2.92 1.227 3.843 3.843 0 0 0-1.08 2.917 4.003 4.003 0 0 0 1.207 2.946 4.216 4.216 0 0 0 3.013 1.198 4.26 4.26 0 0 0 3.54-1.833l-1.45-.975a2.444 2.444 0 0 1-2.09 1.15 2.165 2.165 0 0 1-2.06-1.258l5.69-2.29-.21-.44Zm-5.8 1.384c-.04-.61.171-1.209.589-1.664a2.354 2.354 0 0 1 1.631-.754 1.658 1.658 0 0 1 1.58.877l-3.8 1.541Zm-4.62 4.017h1.87V17.062h-1.87V29.25Zm-3.06-7.117h-.07a3.035 3.035 0 0 0-2.24-.976c-2.27.108-4.054 1.933-4.054 4.15 0 2.215 1.784 4.04 4.054 4.148a2.933 2.933 0 0 0 2.24-.975h.06v.672c0 1.59-.87 2.438-2.27 2.438a2.348 2.348 0 0 1-2.14-1.472l-1.63.663c.628 1.488 2.12 2.457 3.77 2.447 2.19 0 4-1.258 4-4.32V21.45h-1.72v.683Zm-2.14 5.733c-1.337-.115-2.363-1.207-2.363-2.516s1.026-2.4 2.363-2.516a2.424 2.424 0 0 1 1.679.792c.427.473.64 1.095.591 1.724a2.284 2.284 0 0 1-.588 1.733 2.405 2.405 0 0 1-1.692.783h.01Zm24.38-10.803h-4.47V29.25h1.87v-4.622h2.61c1.453.1 2.841-.6 3.598-1.813a3.712 3.712 0 0 0-.006-3.948c-.76-1.212-2.15-1.908-3.602-1.805Zm0 5.85H99.2v-4.154h2.65c1.182 0 2.14.934 2.14 2.087 0 1.152-.958 2.086-2.14 2.086l-.04-.02Zm11.53-1.756c-1.391-.08-2.7.65-3.33 1.863l1.66.672a1.78 1.78 0 0 1 1.7-.896c.48-.055.961.08 1.338.376.376.295.614.725.662 1.193v.127c-.6-.31-1.27-.47-1.95-.468-1.79 0-3.6.975-3.6 2.74a2.79 2.79 0 0 0 .97 1.979 2.937 2.937 0 0 0 2.13.702c.96.067 1.88-.382 2.4-1.17h.06v.975h1.8v-4.69c0-2.135-1.66-3.373-3.79-3.373l-.05-.03Zm-.23 6.68c-.693.094-1.338-.363-1.46-1.034 0-.975 1.06-1.297 2-1.297a3.388 3.388 0 0 1 1.7.41c-.13 1.09-1.063 1.923-2.19 1.95l-.05-.03Zm10.63-6.387-2.14 5.285h-.06l-2.22-5.285h-2l3.33 7.39-1.9 4.105h1.95l5.12-11.495H123.74Zm-16.81 7.8h1.87V17.062h-1.87V29.25ZM71.41 6.594a3.09 3.09 0 0 1 2.27.927 3.188 3.188 0 0 1 0 4.465 3.252 3.252 0 0 1-2.27.917c-.852 0-1.668-.33-2.27-.917a3.198 3.198 0 0 1 0-4.475 3.039 3.039 0 0 1 2.27-.917ZM44.45 6.59c.437-.001.87.085 1.27.253.385.146.728.38 1 .683l.06.068-.67.653-.07-.078a1.943 1.943 0 0 0-1.57-.663 2.3 2.3 0 0 0-2.162 1.423 2.204 2.204 0 0 0 .592 2.477 2.333 2.333 0 0 0 3.17 0c.258-.268.42-.61.46-.975h-2.17v-.897h3.09c.021.103.037.245.048.426.02.92-.25 1.498-.778 2.04a3.04 3.04 0 0 1-2.27.898 3.172 3.172 0 0 1-2.28-.907 3.111 3.111 0 0 1-.699-3.439c.498-1.179 1.672-1.952 2.98-1.962Zm7.68.132v.917H49.4v1.657h2.46v.897H49.4v1.658h2.73v.916h-3.71V6.721h3.71Zm4.92 0v.917h-1.67v5.128h-.97V7.638h-1.68V6.72h4.32Zm3.76 0v6.045h-.97V6.721h.97Zm5.09 0v.917h-1.67v5.128h-.97V7.638h-1.68V6.72h4.32Zm10.67 0 2.78 4.349-.02-.83V6.722h.97v6.045h-.96l-.03-.049-2.89-4.514.02.82v3.743h-.96V6.721h1.09Zm-3.6 1.424a2.25 2.25 0 0 0-3.12 0 2.354 2.354 0 0 0 0 3.217c.409.41.974.635 1.56.624a2.138 2.138 0 0 0 1.56-.624 2.354 2.354 0 0 0 0-3.217Z" fill="#FFF"/>
    <path d="M1.44.526c-.326.382-.49.87-.46 1.365v21.567c-.03.496.134.984.46 1.366l.07.068 12.39-12.07v-.293L1.51.459l-.07.067Z" fill="url(#a)" transform="translate(9 6.825)"/>
    <path d="m18 16.848-4.1-4.027v-.292L18 8.502l.09.049L23 11.27c1.4.77 1.4 2.038 0 2.818l-4.89 2.71-.11.049Z" fill="url(#b)" transform="translate(9 6.825)"/>
    <path d="m18.12 16.79-4.22-4.115L1.44 24.823c.589.505 1.462.53 2.08.059l14.61-8.093" fill="url(#c)" transform="translate(9 6.825)"/>
    <path d="M18.12 8.56 3.51.468a1.662 1.662 0 0 0-2.08.058L13.9 12.675l4.22-4.115Z" fill="url(#d)" transform="translate(9 6.825)"/>
    <path d="M27 23.527 12.51 31.57a1.704 1.704 0 0 1-2 0l-.07.069.07.068a1.694 1.694 0 0 0 2 0l14.61-8.093-.12-.087Z" fill="#000" opacity=".2"/>
    <path d="M10.44 31.512a1.918 1.918 0 0 1-.46-1.365v.146c-.03.496.134.984.46 1.365l.07-.068-.07-.078ZM32 20.768l-5 2.759.09.087 4.91-2.71c.567-.26.948-.795 1-1.404a1.82 1.82 0 0 1-1 1.268Z" fill="#000" opacity=".12"/>
    <path d="M12.51 7.43 32 18.233a1.82 1.82 0 0 1 1 1.267 1.708 1.708 0 0 0-1-1.404L12.51 7.293c-1.4-.77-2.54-.127-2.54 1.433v.146c.03-1.57 1.15-2.213 2.54-1.442Z" fill="#FFF" opacity=".25"/>
  </g>
</svg>
